<svg width="13" height="16" viewBox="0 0 13 16" fill="none" xmlns="http://www.w3.org/2000/svg">
<path d="M12.0475 6.13972L6.14421 0L0.240875 6.13972C0.171225 6.19517 0.113783 6.26562 0.0724392 6.3463C0.0310953 6.42697 0.00681446 6.51599 0.00124012 6.60733C-0.00433423 6.69867 0.00892845 6.7902 0.0401298 6.87571C0.0713312 6.96123 0.119743 7.03874 0.182088 7.10299C0.244433 7.16725 0.319255 7.21675 0.40149 7.24814C0.483724 7.27954 0.571451 7.29209 0.658731 7.28496C0.74601 7.27783 0.830806 7.25117 0.907376 7.2068C0.983946 7.16243 1.0505 7.10138 1.10254 7.02778L5.5331 2.43417V14.6561C5.5331 14.8256 5.59748 14.9881 5.71209 15.1079C5.82669 15.2277 5.98213 15.295 6.14421 15.295C6.30629 15.295 6.46172 15.2277 6.57633 15.1079C6.69094 14.9881 6.75532 14.8256 6.75532 14.6561V2.43417L11.1859 7.02778C11.301 7.14724 11.4567 7.21401 11.6189 7.21341C11.781 7.21281 11.9363 7.14489 12.0506 7.02458C12.1649 6.90428 12.2287 6.74145 12.2282 6.57191C12.2276 6.40237 12.1626 6.24001 12.0475 6.12056V6.13972Z" fill="white"/>
</svg>
