<svg width="17" height="22" viewBox="0 0 17 22" fill="none" xmlns="http://www.w3.org/2000/svg">
<path d="M7.24365 21.1414C1.09497 12.2974 4.76837e-07 11.3708 4.76837e-07 8.08594C4.76837e-07 3.62183 3.57971 0 8.08594 0C12.55 0 16.1719 3.62183 16.1719 8.08594C16.1719 11.3708 15.0348 12.2974 8.88611 21.1414C8.50708 21.731 7.62268 21.731 7.24365 21.1414ZM8.08594 11.4551C9.93897 11.4551 11.4551 9.98108 11.4551 8.08594C11.4551 6.23291 9.93897 4.7168 8.08594 4.7168C6.1908 4.7168 4.7168 6.23291 4.7168 8.08594C4.7168 9.98108 6.1908 11.4551 8.08594 11.4551Z" fill="#FFD812"/>
</svg>
