<svg width="22" height="17" viewBox="0 0 22 17" fill="none" xmlns="http://www.w3.org/2000/svg">
<path d="M21.1414 5.34851C21.3098 5.22217 21.5625 5.34851 21.5625 5.55908V14.1504C21.5625 15.2875 20.636 16.1719 19.541 16.1719H2.02148C0.884399 16.1719 0 15.2875 0 14.1504V5.55908C0 5.34851 0.210571 5.22217 0.379028 5.34851C1.34766 6.10657 2.56897 7.03308 6.86462 10.1495C7.74902 10.7812 9.26514 12.171 10.7812 12.171C12.2552 12.171 13.8135 10.7812 14.6558 10.1495C18.9514 7.03308 20.1727 6.10657 21.1414 5.34851ZM10.7812 10.7812C9.77051 10.8234 8.38074 9.55994 7.66479 9.05457C2.0636 5.0116 1.64246 4.63257 0.379028 3.62183C0.126343 3.45337 0 3.15857 0 2.82166V2.02148C0 0.926514 0.884399 0 2.02148 0H19.541C20.636 0 21.5625 0.926514 21.5625 2.02148V2.82166C21.5625 3.15857 21.394 3.45337 21.1414 3.62183C19.8779 4.63257 19.4568 5.0116 13.8556 9.05457C13.1396 9.55994 11.7499 10.8234 10.7812 10.7812Z" fill="#FFD812"/>
</svg>
