<svg width="42" height="42" viewBox="0 0 42 42" fill="none" xmlns="http://www.w3.org/2000/svg">
<path fill-rule="evenodd" clip-rule="evenodd" d="M6.63354 39.4756L29.3905 16.7186C29.4203 16.6888 29.4203 16.6403 29.3905 16.6104L26.026 13.2459C26.0055 13.2255 25.9986 13.1974 26.0069 13.1697C26.0152 13.142 26.0366 13.1226 26.065 13.1168L39.0759 10.4933C39.1017 10.4881 39.1264 10.4956 39.1451 10.5142C39.1637 10.5329 39.1712 10.5576 39.166 10.5834L36.5425 23.5943C36.5368 23.6227 36.5173 23.644 36.4896 23.6524C36.4619 23.6608 36.4338 23.6537 36.4134 23.6333L33.0489 20.2688C33.019 20.239 32.9705 20.239 32.9407 20.2688L13.6257 39.5838C13.6108 39.5986 13.5927 39.6062 13.5716 39.6062H6.68764C6.65606 39.6062 6.62909 39.5881 6.61691 39.559C6.6049 39.5298 6.6112 39.4979 6.63354 39.4756ZM18.355 3.02209C19.1924 2.18469 20.55 2.18469 21.3874 3.02209C22.2248 3.85949 22.2248 5.21709 21.3874 6.05449C20.55 6.89189 19.1924 6.89189 18.355 6.05449C17.5177 5.21709 17.5177 3.8594 18.355 3.02209ZM3.46044 11.155C2.62305 11.9924 2.62305 13.3501 3.46044 14.1874C4.29784 15.0248 5.65553 15.0248 6.49284 14.1874C7.33024 13.35 7.33024 11.9924 6.49284 11.155C5.65545 10.3176 4.29784 10.3176 3.46044 11.155ZM17.2034 27.3654L17.3507 27.3804C17.8624 27.4327 18.3577 27.1193 18.4607 26.6154L20.4505 16.8899C20.4554 16.8655 20.4702 16.8467 20.4927 16.8361C20.5152 16.8254 20.5391 16.826 20.5611 16.8376L22.9878 18.1179C23.0237 18.1369 23.0386 18.1806 23.0216 18.2175C22.6816 18.9564 21.9384 19.809 21.6326 20.5442C21.3971 21.1101 21.6934 21.7487 22.2777 21.9344L22.4187 21.9792C22.909 22.1349 23.3776 21.8856 23.6616 21.4568L25.3235 18.9477C25.9946 17.9346 25.5796 16.573 24.6188 15.829L22.657 14.3101C22.0671 13.8533 21.8215 13.1295 22.0116 12.4079L22.9181 8.96803C22.9234 8.94787 22.9351 8.93241 22.9529 8.92183L28.2908 5.74235C28.3142 5.7284 28.3411 5.72765 28.3653 5.74025C28.8823 6.00989 29.4151 5.86322 29.3552 5.20903C29.3533 5.18795 29.3592 5.16913 29.3728 5.15283C29.7777 4.67051 30.8634 4.08377 30.781 3.93408L30.7468 3.87183C30.5492 3.51324 30.1227 3.35876 29.7413 3.50753C26.6479 4.71427 13.8861 9.53553 11.4942 11.4564C11.4929 11.4575 11.4916 11.4585 11.4902 11.4595L5.72223 15.4919C4.65812 16.2358 4.17629 17.4215 4.15353 18.7197C4.04408 24.9547 4.21082 31.1565 4.66324 37.3242C4.7081 37.9356 5.2604 38.3721 5.86562 38.2745L6.01178 38.2509C6.51956 38.169 6.86774 37.7385 6.88588 37.2245L7.27934 26.0633C7.28034 26.0346 7.29572 26.0106 7.32125 25.9977L9.30584 24.9946C9.56229 24.865 9.85242 25.0018 10.0787 25.1789C10.305 25.3561 10.4299 25.5979 10.4433 25.885C10.5264 27.6674 10.633 29.4472 10.7633 31.224C10.8082 31.8354 11.3605 32.2719 11.9657 32.1743L12.1119 32.1507C12.6196 32.0688 12.986 31.6386 12.986 31.1243V23.7914C12.986 22.6258 12.0455 21.6973 10.88 21.7123L9.73785 21.727C9.06862 21.7357 8.54421 21.1718 8.60116 20.505L8.91608 16.8208C8.9175 16.8041 8.92338 16.79 8.93439 16.7773L11.736 13.5302C11.7548 13.5084 11.782 13.4993 11.8101 13.5055C12.1772 13.5854 12.5664 13.5454 12.753 13.3588C13.05 13.0619 13.1717 12.9742 13.2383 12.8046C13.2464 12.784 13.2611 12.7693 13.2817 12.7612L17.7688 11.011C17.7964 11.0002 17.8257 11.0055 17.8477 11.0253C17.8698 11.045 17.8782 11.0737 17.8705 11.1022C16.4353 16.4178 17.3189 20.7379 16.2881 26.1361C16.1732 26.7381 16.5936 27.303 17.2034 27.3654Z" fill="url(#paint0_linear_1_201)"/>
<defs>
<linearGradient id="paint0_linear_1_201" x1="21" y1="2.39404" x2="21" y2="39.6062" gradientUnits="userSpaceOnUse">
<stop stop-color="#3C9E53"/>
<stop offset="1" stop-color="#A0C041"/>
</linearGradient>
</defs>
</svg>
