<svg width="45" height="41" viewBox="0 0 45 41" fill="none" xmlns="http://www.w3.org/2000/svg">
<path d="M23.5559 16.1064C27.1316 16.1064 29.819 11.3328 29.819 8.23957C29.4777 0.672892 17.6425 0.667383 17.3003 8.23961C17.3003 11.3328 19.9877 16.1064 23.5559 16.1064Z" fill="url(#paint0_linear_1_216)"/>
<path d="M13.2803 22.6564C14.4171 21.7922 18.1283 20.4685 22.8858 23.8223L26.9734 24.5219C27.987 24.6912 28.9397 25.0842 29.748 25.6664C30.5564 26.2487 31.1959 27.0026 31.6106 27.8621L34.1475 26.5384C34.9443 25.9749 35.6918 25.3557 36.3832 24.6865C36.4685 24.6072 36.5314 24.5102 36.5668 24.404C36.6022 24.2977 36.6089 24.1852 36.5864 24.0761C36.1969 22.247 35.3489 20.5247 34.1083 19.0435C32.8678 17.5623 31.2685 16.3623 29.435 15.5371C29.288 15.4731 29.1222 15.4539 28.9623 15.4823C28.8023 15.5107 28.6567 15.5852 28.5468 15.6948C27.9487 16.3793 27.1887 16.9319 26.3236 17.3116C25.4585 17.6912 24.5104 17.888 23.5502 17.8873C22.59 17.8867 21.6423 17.6885 20.7778 17.3077C19.9133 16.9268 19.1543 16.3731 18.5573 15.6878C18.4457 15.5805 18.2996 15.5082 18.1401 15.4811C17.9805 15.454 17.8157 15.4736 17.6691 15.5371C15.8397 16.3654 14.2443 17.5666 13.0067 19.0475C11.7691 20.5283 10.9226 22.249 10.5327 24.0761C10.5006 24.2103 10.5192 24.3505 10.5854 24.4739L13.2803 22.6564ZM27.8843 20.7771H28.4865V20.2215C28.4865 20.0396 28.5658 19.8652 28.707 19.7365C28.8482 19.6079 29.0396 19.5357 29.2393 19.5357C29.4389 19.5357 29.6304 19.6079 29.7716 19.7365C29.9128 19.8652 29.9921 20.0396 29.9921 20.2215V20.7771H30.6018C30.7995 20.7798 30.9881 20.8532 31.1269 20.9815C31.2656 21.1099 31.3434 21.2828 31.3434 21.4629C31.3434 21.6431 31.2656 21.816 31.1269 21.9443C30.9881 22.0727 30.7995 22.1461 30.6018 22.1488H29.9921V22.7044C29.9921 22.8863 29.9128 23.0607 29.7716 23.1893C29.6304 23.318 29.439 23.3902 29.2393 23.3902C29.0397 23.3902 28.8482 23.318 28.707 23.1893C28.5659 23.0607 28.4865 22.8863 28.4865 22.7044V22.1488H27.8843C27.6864 22.1463 27.4976 22.073 27.3586 21.9446C27.2197 21.8163 27.1417 21.6432 27.1417 21.4629C27.1417 21.2826 27.2197 21.1096 27.3586 20.9812C27.4976 20.8529 27.6864 20.7795 27.8843 20.7771Z" fill="url(#paint1_linear_1_216)"/>
<path d="M14.8762 33.987C14.3437 33.0512 9.81765 27.0614 9.71964 26.9843C9.2712 26.4765 8.62858 26.142 7.92071 26.0478C7.21284 25.9537 6.49208 26.1069 5.90304 26.4768L3.60706 27.9034C3.52329 27.9551 3.45178 28.0217 3.39677 28.0991C3.34176 28.1765 3.30438 28.2632 3.28683 28.3541C3.26928 28.4449 3.27192 28.538 3.2946 28.6279C3.31729 28.7178 3.35954 28.8026 3.41887 28.8773L10.7961 38.1502C10.8656 38.2382 10.9572 38.3096 11.0633 38.3586C11.1695 38.4075 11.2869 38.4325 11.4059 38.4315C11.655 38.5346 13.4836 37.2902 13.8675 37.1077C14.4016 36.7708 14.793 36.2774 14.9765 35.7096C15.16 35.1418 15.1246 34.5339 14.8762 33.987Z" fill="url(#paint2_linear_1_216)"/>
<path d="M41.4345 28.2394C40.878 27.475 40.0246 26.9306 39.0459 26.7157C38.0671 26.5007 37.0352 26.6309 36.1575 27.0803L32.0548 29.2065C32.1734 29.8184 32.1836 30.4436 32.0849 31.0584C32.0395 31.3296 31.9344 31.5896 31.7761 31.823C31.6177 32.0563 31.4092 32.2581 31.1632 32.4163C30.9172 32.5744 30.6387 32.6857 30.3443 32.7435C30.05 32.8013 29.7459 32.8043 29.4502 32.7525L23.2501 31.8201C23.056 31.7885 22.8834 31.6885 22.7696 31.5418C22.6558 31.3951 22.61 31.2134 22.642 31.0362C22.674 30.8589 22.7814 30.7003 22.9408 30.5946C23.1003 30.4889 23.299 30.4446 23.4939 30.4713L29.7513 31.4081C30.5813 31.5144 30.6821 30.6939 30.6471 30.1324C30.629 29.1153 30.2257 28.135 29.5056 27.3577C28.7854 26.5803 27.7925 26.0534 26.6951 25.8664L22.2461 25.105C17.3154 21.4562 14.244 23.7127 14.2215 23.7333C13.2362 24.4123 11.7977 25.3596 10.8114 26.031C11.0487 26.2273 11.5849 27.05 11.7901 27.293L15.7571 32.6427C16.1394 33.1223 16.4015 33.6725 16.525 34.2545C18.9507 34.6047 21.323 35.2124 23.5936 36.0652C24.5758 36.4114 25.6438 36.5039 26.68 36.3327L32.9958 35.297C33.892 35.1422 34.7354 34.7967 35.4574 34.2888L41.0506 30.3588C41.3966 30.1151 41.6286 29.761 41.6998 29.3679C41.771 28.9747 41.6762 28.5715 41.4345 28.2394Z" fill="url(#paint3_linear_1_216)"/>
<defs>
<linearGradient id="paint0_linear_1_216" x1="23.5597" y1="2.5625" x2="23.5597" y2="16.1064" gradientUnits="userSpaceOnUse">
<stop stop-color="#3C9E53"/>
<stop offset="1" stop-color="#A0C041"/>
</linearGradient>
<linearGradient id="paint1_linear_1_216" x1="23.5584" y1="15.4692" x2="23.5584" y2="27.8621" gradientUnits="userSpaceOnUse">
<stop stop-color="#3C9E53"/>
<stop offset="1" stop-color="#A0C041"/>
</linearGradient>
<linearGradient id="paint2_linear_1_216" x1="9.18385" y1="26.0208" x2="9.18385" y2="38.4375" gradientUnits="userSpaceOnUse">
<stop stop-color="#3C9E53"/>
<stop offset="1" stop-color="#A0C041"/>
</linearGradient>
<linearGradient id="paint3_linear_1_216" x1="26.2672" y1="23.0247" x2="26.2672" y2="36.4164" gradientUnits="userSpaceOnUse">
<stop stop-color="#3C9E53"/>
<stop offset="1" stop-color="#A0C041"/>
</linearGradient>
</defs>
</svg>
