<svg width="36" height="35" viewBox="0 0 36 35" fill="none" xmlns="http://www.w3.org/2000/svg">
<path d="M35.3367 21.4796L24.7898 17.1989C24.5385 17.0965 24.2583 17.0965 24.007 17.1989L13.4601 21.4796C13.0595 21.6426 12.7969 22.0356 12.7969 22.4735C12.7969 22.9114 13.0595 23.3044 13.4602 23.4674L24.0071 27.748C24.2542 27.8488 24.5377 27.8508 24.7899 27.748L33.8906 24.0543V31.0348C33.8906 31.6263 34.3624 32.105 34.9453 32.105C35.5283 32.105 36 31.6263 36 31.0348V22.4735C36 22.07 35.6917 21.6237 35.3367 21.4796Z" fill="url(#paint0_linear_1_189)"/>
<path d="M3.16406 10.7017H8.4375V9.63151C8.4375 9.03999 8.90923 8.56134 9.49219 8.56134H13.7109C14.2939 8.56134 14.7656 9.03999 14.7656 9.63151V10.7017H20.0391C21.7838 10.7017 23.2031 9.26151 23.2031 7.49117V5.35084C23.2031 4.75932 22.7314 4.28067 22.1484 4.28067H16.875V1.07017C16.875 0.47865 16.4033 0 15.8203 0H7.38281C6.79985 0 6.32812 0.47865 6.32812 1.07017V4.28067H1.05469C0.471727 4.28067 0 4.75932 0 5.35084V7.49117C0 9.26151 1.41933 10.7017 3.16406 10.7017ZM8.4375 2.14033H14.7656V4.28067H8.4375V2.14033Z" fill="url(#paint1_linear_1_189)"/>
<path d="M11.6016 12.842C12.1835 12.842 12.6562 12.3623 12.6562 11.7718V10.7017H10.5469V11.7718C10.5469 12.3623 11.0197 12.842 11.6016 12.842Z" fill="url(#paint2_linear_1_189)"/>
<path d="M1.05469 21.4035H10.7428C11.04 20.551 11.6703 19.8444 12.5347 19.4931C17.2252 17.5995 22.1247 15.5768 23.2031 15.1878V11.7446C22.319 12.4237 21.2307 12.8421 20.0391 12.8421H14.5714C14.1345 14.0851 12.9748 14.9825 11.6016 14.9825C10.2284 14.9825 9.06863 14.0851 8.63177 12.8421H3.16406C1.97241 12.8421 0.884109 12.4237 0 11.7446V20.3333C0 20.9248 0.471727 21.4035 1.05469 21.4035Z" fill="url(#paint3_linear_1_189)"/>
<path d="M30.7266 34.2451C31.3095 34.2451 31.7812 33.7664 31.7812 33.1749V27.2157L25.5736 29.7355C24.8263 30.0392 23.9771 30.0432 23.2212 29.7335L17.0156 27.2156V33.1749C17.0156 33.7664 17.4874 34.2451 18.0703 34.2451H30.7266Z" fill="url(#paint4_linear_1_189)"/>
<defs>
<linearGradient id="paint0_linear_1_189" x1="24.3984" y1="17.1221" x2="24.3984" y2="32.105" gradientUnits="userSpaceOnUse">
<stop stop-color="#3C9E53"/>
<stop offset="1" stop-color="#A0C041"/>
</linearGradient>
<linearGradient id="paint1_linear_1_189" x1="11.6016" y1="0" x2="11.6016" y2="10.7017" gradientUnits="userSpaceOnUse">
<stop stop-color="#3C9E53"/>
<stop offset="1" stop-color="#A0C041"/>
</linearGradient>
<linearGradient id="paint2_linear_1_189" x1="11.6016" y1="10.7017" x2="11.6016" y2="12.842" gradientUnits="userSpaceOnUse">
<stop stop-color="#3C9E53"/>
<stop offset="1" stop-color="#A0C041"/>
</linearGradient>
<linearGradient id="paint3_linear_1_189" x1="11.6016" y1="11.7446" x2="11.6016" y2="21.4035" gradientUnits="userSpaceOnUse">
<stop stop-color="#3C9E53"/>
<stop offset="1" stop-color="#A0C041"/>
</linearGradient>
<linearGradient id="paint4_linear_1_189" x1="24.3984" y1="27.2156" x2="24.3984" y2="34.2451" gradientUnits="userSpaceOnUse">
<stop stop-color="#3C9E53"/>
<stop offset="1" stop-color="#A0C041"/>
</linearGradient>
</defs>
</svg>
