<svg width="46" height="46" viewBox="0 0 46 46" fill="none" xmlns="http://www.w3.org/2000/svg">
<path d="M14.1717 5.97351L21.1026 1.80889L20.4085 0.653677C20.0254 0.0161459 19.1972 -0.190764 18.5593 0.192599L13.9385 2.96895C13.3009 3.35204 13.0942 4.18031 13.4774 4.8182L14.1717 5.97351Z" fill="url(#paint0_linear_1_177)"/>
<path d="M42.0539 31.452C41.6676 30.8159 40.8383 30.6128 40.2022 30.9992L32.6814 35.5677C33.039 36.4257 33.2717 37.3466 33.3588 38.3098L41.6011 33.3028C42.238 32.9164 42.4402 32.0881 42.0539 31.452Z" fill="url(#paint1_linear_1_177)"/>
<path d="M34.7463 43.3047H30.7033V39.1719C30.7033 35.4564 27.6805 32.4336 23.965 32.4336C20.2495 32.4336 17.2267 35.4564 17.2267 39.1719V43.3047H13.1838C12.4395 43.3047 11.8361 43.9081 11.8361 44.6523C11.8361 45.3966 12.4395 46 13.1838 46H34.7463C35.4905 46 36.0939 45.3966 36.0939 44.6523C36.0939 43.9081 35.4905 43.3047 34.7463 43.3047ZM23.965 40.5195C23.2208 40.5195 22.6174 39.9161 22.6174 39.1719C22.6174 38.4276 23.2208 37.8242 23.965 37.8242C24.7093 37.8242 25.3127 38.4276 25.3127 39.1719C25.3127 39.9161 24.7093 40.5195 23.965 40.5195Z" fill="url(#paint2_linear_1_177)"/>
<path d="M13.9436 10.8271L15.3653 13.1931L18.2398 11.455C21.6471 9.3948 26.0399 10.5429 28.0618 13.8477C30.1426 17.2495 29.0519 21.6872 25.6304 23.7362L22.7402 25.4671L23.661 26.9995C24.0459 27.64 24.8778 27.8436 25.5142 27.4582C25.5567 27.4326 26.0078 27.1616 26.6889 26.7523L28.7565 30.1933C29.1404 30.8323 29.9697 31.0367 30.6058 30.6544L35.2264 27.878C35.8644 27.4946 36.0708 26.6668 35.6875 26.0287L33.6199 22.5877C34.3098 22.1733 34.7516 21.9078 34.7516 21.9078C35.3896 21.5244 35.596 20.6965 35.2127 20.0585C35.1805 20.0049 25.4865 3.86869 25.4511 3.81721C25.0477 3.23 24.2569 3.05821 23.6462 3.42523L14.4047 8.97784C13.7667 9.3612 13.5603 10.1891 13.9436 10.8271Z" fill="url(#paint3_linear_1_177)"/>
<path d="M14.5314 39.1721C14.5314 36.5348 15.6197 34.1474 17.3701 32.4338H15.8791C13.6498 32.4338 11.8361 30.6201 11.8361 28.3908C11.8361 26.1615 13.6498 24.3479 15.8786 24.3479C15.8792 24.3479 18.9886 24.3492 18.9884 24.3492C19.2323 24.3491 19.4716 24.283 19.6808 24.1577L24.2455 21.4239C26.38 20.1456 27.0609 17.3768 25.7625 15.2544C24.4823 13.1619 21.7332 12.4924 19.6344 13.7615L15.4922 16.2662C8.98259 16.4706 3.75018 21.831 3.75018 28.3908C3.75018 34.6232 8.47543 39.7719 14.5314 40.4444V39.1721Z" fill="url(#paint4_linear_1_177)"/>
<defs>
<linearGradient id="paint0_linear_1_177" x1="17.1937" y1="0" x2="17.1937" y2="5.97351" gradientUnits="userSpaceOnUse">
<stop stop-color="#3C9E53"/>
<stop offset="1" stop-color="#A0C041"/>
</linearGradient>
<linearGradient id="paint1_linear_1_177" x1="37.4657" y1="30.8033" x2="37.4657" y2="38.3098" gradientUnits="userSpaceOnUse">
<stop stop-color="#3C9E53"/>
<stop offset="1" stop-color="#A0C041"/>
</linearGradient>
<linearGradient id="paint2_linear_1_177" x1="23.965" y1="32.4336" x2="23.965" y2="46" gradientUnits="userSpaceOnUse">
<stop stop-color="#3C9E53"/>
<stop offset="1" stop-color="#A0C041"/>
</linearGradient>
<linearGradient id="paint3_linear_1_177" x1="24.8155" y1="3.23254" x2="24.8155" y2="30.8469" gradientUnits="userSpaceOnUse">
<stop stop-color="#3C9E53"/>
<stop offset="1" stop-color="#A0C041"/>
</linearGradient>
<linearGradient id="paint4_linear_1_177" x1="15.0857" y1="13.119" x2="15.0857" y2="40.4444" gradientUnits="userSpaceOnUse">
<stop stop-color="#3C9E53"/>
<stop offset="1" stop-color="#A0C041"/>
</linearGradient>
</defs>
</svg>
