<svg width="23" height="23" viewBox="0 0 23 23" fill="none" xmlns="http://www.w3.org/2000/svg">
<path d="M17.5643 21.5626C16.6874 21.5626 15.4556 21.2454 13.6111 20.2149C11.3682 18.9571 9.6333 17.7959 7.40248 15.5709C5.25162 13.4214 4.20494 12.0297 2.74003 9.36404C1.08511 6.35427 1.36722 4.77661 1.68257 4.10234C2.05812 3.29644 2.61246 2.81443 3.32896 2.33601C3.73593 2.06937 4.16661 1.8408 4.61552 1.6532C4.66044 1.63388 4.70222 1.61546 4.73951 1.59884C4.96187 1.49867 5.29878 1.34728 5.72554 1.509C6.01035 1.61591 6.26461 1.83468 6.66261 2.22775C7.47884 3.03275 8.59425 4.82558 9.00574 5.70605C9.28201 6.29947 9.46484 6.69118 9.46529 7.13052C9.46529 7.64488 9.20654 8.04154 8.89253 8.46964C8.83369 8.55005 8.77529 8.62687 8.71869 8.70144C8.37683 9.15066 8.30181 9.28048 8.35123 9.51228C8.4514 9.97812 9.19845 11.3649 10.4262 12.5899C11.6539 13.8149 13.0006 14.5148 13.4683 14.6145C13.71 14.6662 13.8425 14.588 14.3061 14.234C14.3726 14.1833 14.4408 14.1307 14.5123 14.0781C14.9911 13.7219 15.3694 13.4699 15.8716 13.4699H15.8743C16.3114 13.4699 16.6856 13.6595 17.3055 13.9721C18.1141 14.38 19.9608 15.481 20.7708 16.2982C21.1647 16.6953 21.3844 16.9486 21.4918 17.233C21.6535 17.6611 21.5012 17.9967 21.4019 18.2213C21.3853 18.2586 21.3669 18.2994 21.3476 18.3448C21.1585 18.7929 20.9286 19.2227 20.6607 19.6287C20.1832 20.3429 19.6994 20.8959 18.8917 21.2719C18.4769 21.4681 18.023 21.5675 17.5643 21.5626Z" fill="#FFD812"/>
</svg>
