<svg width="29" height="21" viewBox="0 0 29 21" fill="none" xmlns="http://www.w3.org/2000/svg">
<path d="M28.204 3.24515C27.8727 1.96778 26.8966 0.961775 25.6572 0.620371C23.4108 0 14.4029 0 14.4029 0C14.4029 0 5.39514 0 3.14867 0.620371C1.90932 0.961829 0.933219 1.96778 0.601927 3.24515C0 5.56044 0 10.3911 0 10.3911C0 10.3911 0 15.2217 0.601927 17.537C0.933219 18.8144 1.90932 19.7785 3.14867 20.1199C5.39514 20.7402 14.4029 20.7402 14.4029 20.7402C14.4029 20.7402 23.4108 20.7402 25.6572 20.1199C26.8966 19.7785 27.8727 18.8144 28.204 17.537C28.8059 15.2217 28.8059 10.3911 28.8059 10.3911C28.8059 10.3911 28.8059 5.56044 28.204 3.24515ZM11.4569 14.7769V6.00522L18.9856 10.3912L11.4569 14.7769Z" fill="white"/>
</svg>
