<svg width="24" height="24" viewBox="0 0 24 24" fill="none" xmlns="http://www.w3.org/2000/svg">
<path d="M11.6325 5.66639C8.33229 5.66639 5.67031 8.32896 5.67031 11.6299C5.67031 14.9309 8.33229 17.5934 11.6325 17.5934C14.9327 17.5934 17.5947 14.9309 17.5947 11.6299C17.5947 8.32896 14.9327 5.66639 11.6325 5.66639ZM11.6325 15.507C9.49982 15.507 7.75631 13.7683 7.75631 11.6299C7.75631 9.49156 9.49463 7.75285 11.6325 7.75285C13.7704 7.75285 15.5087 9.49156 15.5087 11.6299C15.5087 13.7683 13.7652 15.507 11.6325 15.507ZM19.2293 5.42245C19.2293 6.19579 18.6066 6.81342 17.8386 6.81342C17.0654 6.81342 16.4479 6.1906 16.4479 5.42245C16.4479 4.6543 17.0706 4.03148 17.8386 4.03148C18.6066 4.03148 19.2293 4.6543 19.2293 5.42245ZM23.1781 6.83418C23.0899 4.9709 22.6644 3.32042 21.2997 1.96059C19.9402 0.600764 18.29 0.175169 16.4272 0.0817455C14.5072 -0.0272485 8.7526 -0.0272485 6.83266 0.0817455C4.97498 0.169979 3.32487 0.595574 1.96016 1.9554C0.595442 3.31523 0.17513 4.96571 0.0817273 6.82899C-0.0272424 8.74936 -0.0272424 14.5053 0.0817273 16.4257C0.169941 18.2889 0.595442 19.9394 1.96016 21.2992C3.32487 22.6591 4.9698 23.0847 6.83266 23.1781C8.7526 23.2871 14.5072 23.2871 16.4272 23.1781C18.29 23.0899 19.9402 22.6643 21.2997 21.2992C22.6592 19.9394 23.0847 18.2889 23.1781 16.4257C23.2871 14.5053 23.2871 8.75455 23.1781 6.83418ZM20.6978 18.4862C20.293 19.5034 19.5095 20.2872 18.4872 20.6972C16.9565 21.3044 13.3241 21.1643 11.6325 21.1643C9.94089 21.1643 6.30338 21.2992 4.7778 20.6972C3.76075 20.2923 2.97721 19.5086 2.56727 18.4862C1.96016 16.9551 2.10026 13.3219 2.10026 11.6299C2.10026 9.93792 1.96535 6.29959 2.56727 4.77368C2.97202 3.7564 3.75556 2.97268 4.7778 2.56266C6.30857 1.9554 9.94089 2.09554 11.6325 2.09554C13.3241 2.09554 16.9617 1.96059 18.4872 2.56266C19.5043 2.96749 20.2878 3.75121 20.6978 4.77368C21.3049 6.30478 21.1648 9.93792 21.1648 11.6299C21.1648 13.3219 21.3049 16.9602 20.6978 18.4862Z" fill="white"/>
</svg>
