<svg width="24" height="21" viewBox="0 0 24 21" fill="none" xmlns="http://www.w3.org/2000/svg">
<path d="M20.8511 5.13166C20.8659 5.35686 20.8659 5.58212 20.8659 5.80732C20.8659 12.6763 16.0734 20.5911 7.31412 20.5911C4.61555 20.5911 2.10872 19.7384 0 18.2585C0.383415 18.3067 0.752033 18.3228 1.1502 18.3228C3.37684 18.3228 5.4266 17.5024 7.06343 16.1029C4.96947 16.0546 3.21466 14.5585 2.61006 12.4994C2.90501 12.5476 3.19991 12.5798 3.50961 12.5798C3.93724 12.5798 4.36491 12.5155 4.76303 12.4029C2.5806 11.9203 0.943718 9.829 0.943718 7.30338V7.23906C1.57778 7.62514 2.31515 7.86644 3.09664 7.89858C1.81372 6.96553 0.973222 5.37296 0.973222 3.57123C0.973222 2.60604 1.20912 1.72127 1.62204 0.949095C3.96669 4.1021 7.49106 6.16117 11.443 6.38642C11.3693 6.00034 11.325 5.59821 11.325 5.19603C11.325 2.33255 13.4485 0 16.0881 0C17.4594 0 18.6981 0.627382 19.5682 1.64085C20.6446 1.41565 21.6768 0.981281 22.5911 0.386085C22.2372 1.59262 21.4851 2.60609 20.4972 3.24951C21.4557 3.13696 22.3847 2.84733 23.24 2.44521C22.5912 3.47472 21.7801 4.39163 20.8511 5.13166Z" fill="white"/>
</svg>
